<svg width="14" height="14" viewBox="0 0 14 14" fill="none" xmlns="http://www.w3.org/2000/svg">
<path d="M12.8327 6.99935H10.4993M3.49935 6.99935H1.16602M6.99935 3.49935V1.16602M6.99935 12.8327V10.4993M11.666 6.99935C11.666 9.57668 9.57668 11.666 6.99935 11.666C4.42202 11.666 2.33268 9.57668 2.33268 6.99935C2.33268 4.42202 4.42202 2.33268 6.99935 2.33268C9.57668 2.33268 11.666 4.42202 11.666 6.99935ZM8.74935 6.99935C8.74935 7.96585 7.96585 8.74935 6.99935 8.74935C6.03285 8.74935 5.24935 7.96585 5.24935 6.99935C5.24935 6.03285 6.03285 5.24935 6.99935 5.24935C7.96585 5.24935 8.74935 6.03285 8.74935 6.99935Z" stroke="#667085" stroke-width="1.1" stroke-linecap="round" stroke-linejoin="round"/>
</svg>
