<svg width="309" height="218" viewBox="0 0 309 218" fill="none" xmlns="http://www.w3.org/2000/svg">
<path opacity="0.3" d="M479.384 108.043C513.914 143.649 470.993 245.635 383.517 335.836C296.042 426.037 197.137 470.295 162.607 434.689C128.077 399.084 170.998 297.097 258.474 206.897C345.949 116.696 444.854 72.4376 479.384 108.043Z" fill="url(#paint0_linear_41_1961)"/>
<path opacity="0.5" d="M404.357 30.678C438.887 66.2835 395.966 168.27 308.49 258.471C221.014 348.671 122.109 392.929 87.5795 357.324C53.0496 321.718 95.9706 219.732 183.446 129.531C270.922 39.3305 369.827 -4.92762 404.357 30.678Z" fill="url(#paint1_linear_41_1961)"/>
<path opacity="0.7" d="M329.326 -46.6892C363.856 -11.0837 320.935 90.9025 233.459 181.103C145.983 271.304 47.0781 315.562 12.5482 279.957C-21.9817 244.351 20.9394 142.365 108.415 52.1641C195.891 -38.0367 294.796 -82.2948 329.326 -46.6892Z" fill="url(#paint2_linear_41_1961)"/>
<defs>
<linearGradient id="paint0_linear_41_1961" x1="320.996" y1="95.7324" x2="320.996" y2="447" gradientUnits="userSpaceOnUse">
<stop stop-color="white" stop-opacity="0.8"/>
<stop offset="1" stop-color="white" stop-opacity="0.5"/>
</linearGradient>
<linearGradient id="paint1_linear_41_1961" x1="245.968" y1="18.3672" x2="245.968" y2="369.635" gradientUnits="userSpaceOnUse">
<stop stop-color="white" stop-opacity="0.8"/>
<stop offset="1" stop-color="white" stop-opacity="0.5"/>
</linearGradient>
<linearGradient id="paint2_linear_41_1961" x1="170.937" y1="-59" x2="170.937" y2="292.267" gradientUnits="userSpaceOnUse">
<stop stop-color="white" stop-opacity="0.8"/>
<stop offset="1" stop-color="white" stop-opacity="0.5"/>
</linearGradient>
</defs>
</svg>
