<svg width="12" height="14" viewBox="0 0 12 14" fill="none" xmlns="http://www.w3.org/2000/svg">
<path d="M2.79167 11.666H1.91667C1.27233 11.666 0.75 11.1437 0.75 10.4993V2.33268C0.75 1.68835 1.27233 1.16602 1.91667 1.16602H10.0833C10.7277 1.16602 11.25 1.68835 11.25 2.33268V10.4993C11.25 11.1437 10.7277 11.666 10.0833 11.666H9.20833M6 11.0827C6.9665 11.0827 7.75 10.2992 7.75 9.33268C7.75 8.36618 6.9665 7.58268 6 7.58268C5.0335 7.58268 4.25 8.36618 4.25 9.33268C4.25 10.2992 5.0335 11.0827 6 11.0827ZM6 11.0827L6.01251 11.0826L4.15006 12.945L2.50014 11.2951L4.26146 9.53377M6 11.0827L7.86247 12.945L9.51239 11.2951L7.75107 9.53377M4.25 3.49935H7.75M3.08333 5.54102H8.91667" stroke="#667085" stroke-width="1.1" stroke-linecap="round" stroke-linejoin="round"/>
</svg>
