<svg width="18" height="19" viewBox="0 0 18 19" fill="none" xmlns="http://www.w3.org/2000/svg">
<path d="M5.66667 14.1663H12.3333M8.18141 2.30297L2.52949 6.6989C2.15168 6.99275 1.96278 7.13968 1.82669 7.32368C1.70614 7.48667 1.61633 7.67029 1.56169 7.86551C1.5 8.0859 1.5 8.32521 1.5 8.80384V14.833C1.5 15.7664 1.5 16.2331 1.68166 16.5896C1.84144 16.9032 2.09641 17.1582 2.41002 17.318C2.76654 17.4996 3.23325 17.4996 4.16667 17.4996H13.8333C14.7668 17.4996 15.2335 17.4996 15.59 17.318C15.9036 17.1582 16.1586 16.9032 16.3183 16.5896C16.5 16.2331 16.5 15.7664 16.5 14.833V8.80384C16.5 8.32521 16.5 8.0859 16.4383 7.86551C16.3837 7.67029 16.2939 7.48667 16.1733 7.32368C16.0372 7.13968 15.8483 6.99275 15.4705 6.69891L9.81859 2.30297C9.52582 2.07526 9.37943 1.9614 9.21779 1.91763C9.07516 1.87902 8.92484 1.87902 8.78221 1.91763C8.62057 1.9614 8.47418 2.07526 8.18141 2.30297Z" stroke="white" stroke-width="2" stroke-linecap="round" stroke-linejoin="round"/>
</svg>
