<svg width="12" height="14" viewBox="0 0 12 14" fill="none" xmlns="http://www.w3.org/2000/svg">
<path d="M4.25 8.74935H7.75M11.25 4.66602H0.75M8.33333 1.16602V2.91602M3.66667 1.16602V2.91602M3.55 12.8327H8.45C9.43009 12.8327 9.92014 12.8327 10.2945 12.6419C10.6238 12.4742 10.8915 12.2064 11.0593 11.8772C11.25 11.5028 11.25 11.0128 11.25 10.0327V5.13268C11.25 4.15259 11.25 3.66254 11.0593 3.2882C10.8915 2.95892 10.6238 2.6912 10.2945 2.52342C9.92014 2.33268 9.43009 2.33268 8.45 2.33268H3.55C2.56991 2.33268 2.07986 2.33268 1.70552 2.52342C1.37623 2.6912 1.10852 2.95892 0.940739 3.2882C0.75 3.66254 0.75 4.15259 0.75 5.13268V10.0327C0.75 11.0128 0.75 11.5028 0.940739 11.8772C1.10852 12.2064 1.37623 12.4742 1.70552 12.6419C2.07986 12.8327 2.56991 12.8327 3.55 12.8327Z" stroke="#667085" stroke-width="1.1" stroke-linecap="round" stroke-linejoin="round"/>
</svg>
