<svg width="12" height="12" viewBox="0 0 12 12" fill="none" xmlns="http://www.w3.org/2000/svg">
<path d="M1.91667 4.24944V8.91611M4.54167 4.24944V8.91611M7.45833 4.24944V8.91611M10.0833 4.24944V8.91611M0.75 9.84944L0.75 10.3161C0.75 10.6428 0.75 10.8062 0.813579 10.9309C0.869506 11.0407 0.958744 11.1299 1.06851 11.1859C1.19329 11.2494 1.35664 11.2494 1.68333 11.2494H10.3167C10.6434 11.2494 10.8067 11.2494 10.9315 11.1859C11.0413 11.1299 11.1305 11.0407 11.1864 10.9309C11.25 10.8062 11.25 10.6428 11.25 10.3161V9.84944C11.25 9.52274 11.25 9.3594 11.1864 9.23461C11.1305 9.12485 11.0413 9.03561 10.9315 8.97969C10.8067 8.91611 10.6434 8.91611 10.3167 8.91611H1.68333C1.35664 8.91611 1.19329 8.91611 1.06851 8.97969C0.958744 9.03561 0.869506 9.12485 0.81358 9.23461C0.75 9.3594 0.75 9.52274 0.75 9.84944ZM5.79753 0.794435L1.48086 1.75369C1.22008 1.81165 1.08969 1.84062 0.992354 1.91074C0.906503 1.97259 0.839091 2.05663 0.797337 2.15386C0.75 2.26408 0.75 2.39765 0.75 2.6648L0.75 3.31611C0.75 3.64281 0.75 3.80615 0.813579 3.93094C0.869506 4.0407 0.958744 4.12994 1.06851 4.18586C1.19329 4.24944 1.35664 4.24944 1.68333 4.24944H10.3167C10.6434 4.24944 10.8067 4.24944 10.9315 4.18586C11.0413 4.12994 11.1305 4.0407 11.1864 3.93094C11.25 3.80615 11.25 3.64281 11.25 3.31611V2.6648C11.25 2.39766 11.25 2.26408 11.2027 2.15386C11.1609 2.05663 11.0935 1.97259 11.0076 1.91074C10.9103 1.84062 10.7799 1.81165 10.5191 1.75369L6.20247 0.794435C6.12691 0.777645 6.08913 0.76925 6.05096 0.765902C6.01705 0.762929 5.98295 0.762929 5.94904 0.765902C5.91087 0.76925 5.87309 0.777645 5.79753 0.794435Z" stroke="#667085" stroke-width="1.1" stroke-linecap="round" stroke-linejoin="round"/>
</svg>
