<svg width="239" height="160" viewBox="0 0 239 160" fill="none" xmlns="http://www.w3.org/2000/svg">
<g clip-path="url(#clip0_73_5634)">
<path d="M42.5605 123.493C42.2228 122.924 40.7618 123.533 40.4932 123.017C40.2255 122.502 41.583 121.717 42.3585 119.925C42.4984 119.602 43.3797 117.565 42.7272 116.936C41.4905 115.745 35.8314 120.661 33.851 119.052C33.4163 118.699 33.1127 117.994 31.7973 116.85C31.274 116.395 30.9575 116.189 30.6513 116.266C30.2167 116.374 30.1823 116.956 29.7163 118.099C29.0175 119.814 28.6042 119.711 28.1971 121.079C27.8948 122.094 27.9639 122.685 27.6082 122.8C27.1049 122.963 26.6417 121.886 26.0038 121.982C25.353 122.08 24.9595 123.335 24.8352 124.274C24.6019 126.036 25.2491 127.199 25.6079 128.422C25.9977 129.751 26.2291 131.772 25.3288 134.633L16.418 159.74C18.3852 154.588 24.0813 140.466 26.4748 135.218C27.1658 133.703 27.9287 132.166 29.4952 131.559C31.0034 130.976 33.0746 131.324 35.7153 130.688C36.0237 130.614 36.8795 130.396 36.9872 129.893C37.0763 129.476 36.5729 129.244 36.6502 128.854C36.7539 128.332 37.7439 128.325 38.9603 127.722C39.8181 127.297 40.3525 126.791 40.8121 126.356C40.9506 126.225 43.0101 124.251 42.5605 123.493Z" fill="#F2F2F2"/>
<path d="M7.50279 136.71C7.12586 136.712 7.00358 137.605 6.67243 137.588C6.34246 137.57 6.34904 136.678 5.69311 135.78C5.57482 135.618 4.82939 134.598 4.33265 134.737C3.39112 135 4.17125 139.196 2.81019 139.704C2.5115 139.815 2.07793 139.761 1.13672 140.076C0.762279 140.202 0.570096 140.298 0.519264 140.47C0.447144 140.715 0.722643 140.899 1.14944 141.458C1.7895 142.296 1.61942 142.469 2.17347 143.063C2.58477 143.505 2.89452 143.641 2.84836 143.849C2.78305 144.143 2.12063 144.06 1.98393 144.4C1.84446 144.748 2.34657 145.303 2.77165 145.635C3.56936 146.258 4.32689 146.276 5.03059 146.453C5.79532 146.645 6.85402 147.115 7.99848 148.382L17.7498 160C15.7889 157.548 10.5011 150.677 8.61593 147.988C8.07173 147.212 7.53766 146.394 7.692 145.45C7.84057 144.542 8.6093 143.626 9.05899 142.146C9.11151 141.973 9.25156 141.49 9.0356 141.292C8.85705 141.128 8.59779 141.308 8.42881 141.158C8.20215 140.956 8.48462 140.469 8.53957 139.697C8.57831 139.154 8.48424 138.746 8.40335 138.394C8.37896 138.289 8.00456 136.708 7.50279 136.71Z" fill="#F2F2F2"/>
<path d="M15.022 138.399L14.7949 136.372L14.8987 136.218C15.3788 135.507 15.6235 134.813 15.6265 134.154C15.627 134.05 15.6221 133.945 15.6172 133.838C15.5976 133.415 15.5731 132.89 15.8472 132.277C16.0009 131.935 16.4326 131.144 17.0816 131.242C17.2563 131.267 17.3885 131.347 17.4888 131.441C17.5035 131.417 17.5187 131.394 17.5348 131.369C17.7369 131.06 17.897 130.928 18.0512 130.801C18.1696 130.703 18.292 130.602 18.4838 130.363C18.568 130.259 18.6336 130.166 18.6889 130.089C18.8568 129.855 19.0761 129.576 19.4627 129.581C19.8758 129.601 20.0921 129.942 20.2355 130.168C20.4915 130.572 20.6075 130.862 20.6843 131.055C20.7123 131.126 20.7441 131.205 20.7602 131.23C20.8933 131.425 21.9755 131.242 22.3832 131.176C23.2989 131.023 24.0913 130.891 24.4178 131.468C24.6518 131.881 24.478 132.428 23.8858 133.135C23.7013 133.356 23.505 133.523 23.3308 133.654C23.4751 133.74 23.6043 133.873 23.6567 134.08C23.7801 134.571 23.3577 135.064 22.4018 135.545C22.1644 135.666 21.8448 135.826 21.397 135.904C21.186 135.94 20.9961 135.949 20.8336 135.954C20.8302 136.048 20.8082 136.149 20.7509 136.254C20.583 136.562 20.2336 136.709 19.7069 136.674C19.1274 136.644 18.6503 136.533 18.2293 136.436C17.8618 136.352 17.5451 136.281 17.2965 136.297C16.8354 136.334 16.4801 136.703 16.0631 137.182L15.022 138.399Z" fill="#F2F2F2"/>
<path d="M16.0762 126.328L14.1728 127.062L13.9979 127C13.1886 126.716 12.4552 126.655 11.8173 126.82C11.7158 126.846 11.6158 126.877 11.5138 126.909C11.1097 127.035 10.6074 127.192 9.94518 127.082C9.57574 127.02 8.70118 126.803 8.63125 126.151C8.61061 125.976 8.65473 125.827 8.72018 125.707C8.69373 125.698 8.66715 125.69 8.63844 125.68C8.2889 125.563 8.12048 125.442 7.95828 125.325C7.83354 125.235 7.70498 125.142 7.42528 125.017C7.30261 124.963 7.19698 124.922 7.10814 124.889C6.83926 124.786 6.51379 124.644 6.42045 124.269C6.33461 123.864 6.6102 123.568 6.79254 123.372C7.11773 123.023 7.36952 122.837 7.53656 122.713C7.59766 122.668 7.66629 122.618 7.68587 122.596C7.84147 122.417 7.38992 121.417 7.22212 121.039C6.84213 120.192 6.51331 119.459 6.98916 118.997C7.3294 118.666 7.90182 118.696 8.73663 119.089C8.99648 119.212 9.20817 119.359 9.37926 119.494C9.42596 119.333 9.521 119.174 9.70847 119.071C10.1525 118.827 10.7359 119.111 11.4442 119.913C11.6209 120.112 11.8573 120.381 12.0457 120.794C12.1342 120.989 12.1909 121.171 12.2369 121.326C12.3286 121.306 12.4327 121.301 12.5485 121.33C12.8894 121.414 13.12 121.715 13.2195 122.234C13.3372 122.802 13.3512 123.291 13.3642 123.723C13.376 124.1 13.3872 124.425 13.4664 124.661C13.6193 125.097 14.0664 125.347 14.6352 125.629L16.0762 126.328Z" fill="#F2F2F2"/>
<path d="M15.022 120.356L14.7949 118.329L14.8987 118.175C15.3788 117.464 15.6235 116.77 15.6265 116.111C15.627 116.007 15.6221 115.902 15.6172 115.795C15.5976 115.372 15.5731 114.847 15.8472 114.234C16.0009 113.892 16.4326 113.101 17.0816 113.199C17.2563 113.224 17.3885 113.304 17.4888 113.398C17.5035 113.375 17.5187 113.351 17.5348 113.326C17.7369 113.017 17.897 112.885 18.0512 112.758C18.1696 112.66 18.292 112.559 18.4838 112.32C18.568 112.216 18.6336 112.124 18.6889 112.046C18.8568 111.812 19.0761 111.533 19.4627 111.538C19.8758 111.558 20.0921 111.899 20.2355 112.125C20.4915 112.529 20.6075 112.82 20.6843 113.012C20.7123 113.083 20.7441 113.162 20.7602 113.187C20.8933 113.382 21.9755 113.199 22.3832 113.133C23.2989 112.98 24.0913 112.848 24.4178 113.425C24.6518 113.839 24.478 114.385 23.8858 115.092C23.7013 115.313 23.505 115.48 23.3308 115.611C23.4751 115.697 23.6043 115.83 23.6567 116.037C23.7801 116.528 23.3577 117.021 22.4018 117.502C22.1644 117.623 21.8448 117.783 21.397 117.861C21.186 117.897 20.9961 117.906 20.8336 117.911C20.8302 118.005 20.8082 118.106 20.7509 118.211C20.583 118.52 20.2336 118.666 19.7069 118.631C19.1274 118.601 18.6503 118.49 18.2293 118.393C17.8618 118.309 17.5451 118.238 17.2965 118.254C16.8354 118.291 16.4801 118.66 16.0631 119.139L15.022 120.356Z" fill="#F2F2F2"/>
<path d="M17.0977 159.707L16.6728 159.441L16.1775 159.498C16.1697 159.452 16.1428 159.346 16.1022 159.181C15.8804 158.274 15.2045 155.516 14.6407 151.171C14.2472 148.139 14.0245 145.021 13.9785 141.903C13.9325 138.781 14.0803 136.417 14.1987 134.517C14.2883 133.084 14.3969 131.719 14.5036 130.39C14.7875 126.838 15.0552 123.484 14.856 119.77C14.812 118.941 14.7195 117.215 13.7112 115.379C13.1263 114.314 12.3207 113.368 11.3164 112.569L11.9409 111.784C13.0495 112.667 13.9408 113.715 14.5903 114.897C15.7082 116.933 15.809 118.814 15.8574 119.717C16.0601 123.496 15.7894 126.883 15.5026 130.469C15.3969 131.793 15.2882 133.152 15.1991 134.579C15.0817 136.462 14.9353 138.805 14.9808 141.888C15.0259 144.968 15.2461 148.048 15.6342 151.042C16.1912 155.332 16.8574 158.049 17.0761 158.942C17.1926 159.418 17.2171 159.518 17.0977 159.707Z" fill="#F2F2F2"/>
<path d="M9.47691 114.161C9.43579 114.161 9.39419 114.16 9.3521 114.157C8.49852 114.111 7.70808 113.601 7.00231 112.639C6.67145 112.187 6.5021 111.671 6.16438 110.642C6.11201 110.484 5.8575 109.679 5.70284 108.572C5.60152 107.849 5.61425 107.546 5.75765 107.279C5.91672 106.981 6.17417 106.774 6.46392 106.634C6.4512 106.538 6.46146 106.439 6.50308 106.338C6.67389 105.92 7.12809 105.975 7.37379 106.001C7.49811 106.017 7.65326 106.038 7.82065 106.029C8.08397 106.016 8.22542 105.938 8.43979 105.82C8.64487 105.708 8.89986 105.568 9.2782 105.49C10.0241 105.335 10.6491 105.546 10.8552 105.616C11.9393 105.977 12.4737 106.82 13.0924 107.796C13.2157 107.992 13.6391 108.704 13.9186 109.681C14.1202 110.386 14.0918 110.699 14.0311 110.932C13.9078 111.411 13.6166 111.685 12.877 112.29C12.1047 112.923 11.7171 113.24 11.3843 113.433C10.6095 113.88 10.123 114.161 9.47691 114.161Z" fill="#F2F2F2"/>
<path d="M233.463 159.251C233.463 159.437 233.313 159.587 233.127 159.587H0.248047V158.915H233.127C233.313 158.915 233.463 159.065 233.463 159.251Z" fill="#E6E6E6"/>
<path d="M166.234 53.0377C166.234 53.0377 153.698 54.5454 155.813 44.6341C157.927 34.7228 169.916 16.416 169.916 16.416L176.719 20.2314L168.909 38.6945L172.271 41.3472L166.234 53.0377Z" fill="#A0616A"/>
<path d="M207.313 40.9717L205.546 55.4997L161.283 55.283L170.173 39.833L207.313 40.9717Z" fill="#F2F4F7"/>
<path d="M181.009 17.1877C183.718 13.4047 183.935 8.92122 181.494 7.17363C179.054 5.42603 174.879 7.0761 172.17 10.8592C169.462 14.6422 169.244 19.1257 171.685 20.8733C174.126 22.6209 178.3 20.9708 181.009 17.1877Z" fill="#A0616A"/>
<path d="M203.057 96.3597V159.409H205.774V96.3597H203.057Z" fill="#3F3D56"/>
<path d="M190.014 96.3597V159.409H192.731V96.3597H190.014Z" fill="#3F3D56"/>
<path d="M116.908 56.682V159.409H119.626V56.682H116.908Z" fill="#E6E6E6"/>
<path d="M160.662 96.3597V159.409H163.38V96.3597H160.662Z" fill="#3F3D56"/>
<path d="M150.262 96.3597V159.409H152.979V96.3597H150.262Z" fill="#3F3D56"/>
<path d="M200.612 95.001H148.132L138.064 109.281L190.285 112.394L200.612 95.001Z" fill="#3F3D56"/>
<path d="M104.514 46.1449L104.752 35.7891L73.078 38.2254L72.916 45.2427L104.514 46.1449Z" fill="#A0616A"/>
<path d="M83.0776 36.9876L81.5627 40.6323L79.3871 40.7017C79.3871 40.7017 81.9344 41.4818 82.6421 46.1107L80.5517 46.7373C80.5517 46.7373 78.5441 48.6103 74.7913 48.4286L64.7293 47.5869L64.6906 44.0792L71.6449 43.2755C71.6449 43.2755 73.1945 42.2561 65.5236 38.0648C65.5236 38.0648 62.9825 36.5109 65.2679 28.8375C65.582 27.7828 66.5308 27.0253 67.631 27.0015C68.2382 26.9884 68.8071 27.2065 69.0342 27.9607C69.6123 29.8803 69.0274 31.794 70.6161 32.9923C72.2049 34.1906 83.0776 36.9876 83.0776 36.9876Z" fill="#2F2E41"/>
<path d="M196.684 85.7358C196.684 85.7358 185.755 104.324 161.026 100.974C155.141 100.176 149.963 96.6777 147.014 91.5234C141.312 81.5611 132.655 64.1174 135.462 54.24L93.6372 46.2575L90.3418 36.1L135.607 30.2201C139.611 29.6999 143.533 31.647 145.539 35.1507L167.588 73.6579L174.162 74.3756L196.684 85.7358Z" fill="#2F2E41"/>
<path d="M105.34 50.3844L104.744 40.043L73.3691 45.0196L73.7722 52.0272L105.34 50.3844Z" fill="#A0616A"/>
<path d="M83.2368 42.9815L82.02 46.7362L79.857 46.9804C79.857 46.9804 82.4589 47.553 83.5366 52.11L81.5034 52.9028C81.5034 52.9028 79.6531 54.9312 75.8978 55.052L65.8007 55.0226L65.4799 51.5293L72.3471 50.1688C72.3471 50.1688 73.8096 49.0279 65.8263 45.4674C65.8263 45.4674 63.1685 44.1229 64.8291 36.2906C65.0573 35.2141 65.9422 34.3827 67.0369 34.2704C67.641 34.2085 68.2256 34.3801 68.5127 35.1136C69.2434 36.9805 68.8143 38.9351 70.4943 40.0017C72.1743 41.0683 83.2368 42.9815 83.2368 42.9815Z" fill="#2F2E41"/>
<path d="M200.397 82.4319C200.397 82.4319 190.999 101.839 166.08 100.489C160.15 100.168 154.708 97.097 151.353 92.1968C144.869 82.7254 134.837 66.0347 136.839 55.9636L94.5081 51.3718L90.4062 41.5124L135.051 32.0098C139 31.1693 143.066 32.7945 145.348 36.1254L170.424 72.7339L177.034 72.9204L200.397 82.4319Z" fill="#2F2E41"/>
<path d="M171.748 0.482422L169.574 2.11301L180.988 17.8754L183.162 17.3319L171.748 0.482422Z" fill="#3F3D56"/>
<path d="M201.427 35.4849L213.928 34.9414L219.364 59.4003C219.364 59.4003 207.949 102.339 194.361 100.709C194.361 100.709 185.936 94.4579 185.936 92.2838C185.936 90.1097 174.522 84.6744 174.522 84.6744L171.805 75.4344L179.958 62.9332C179.958 62.9332 183.219 53.1497 194.089 47.7144L201.427 35.4849Z" fill="#F2F4F7"/>
<path d="M129.953 54.5078H18.8008V57.2255H73.1538V159.409H75.8714V57.2255H129.953V54.5078Z" fill="#E6E6E6"/>
<path d="M207.949 33.3106C216.054 33.3106 222.624 26.7402 222.624 18.6353C222.624 10.5303 216.054 3.95996 207.949 3.95996C199.844 3.95996 193.273 10.5303 193.273 18.6353C193.273 26.7402 199.844 33.3106 207.949 33.3106Z" fill="#A0616A"/>
<path d="M156.781 37.3867L146.531 41.4632L166.642 68.0962L173.708 62.6609L156.781 37.3867Z" fill="#E6E6E6"/>
<path d="M196.807 88.4789C196.807 88.4789 193.003 100.518 184.85 94.4984C176.697 88.4789 164.977 69.9989 164.977 69.9989L171.261 65.3789L184.85 80.1184L188.654 78.1519L196.807 88.4789Z" fill="#A0616A"/>
<path d="M202.786 46.084L215.287 53.6934L196.807 93.9146L184.85 77.6087L202.786 46.084Z" fill="#F2F4F7"/>
<path d="M169.767 70.2299C172.366 68.7289 172.588 64.2457 170.261 60.2162C167.935 56.1867 163.942 54.1369 161.342 55.6378C158.742 57.1387 158.521 61.622 160.847 65.6515C163.174 69.681 167.167 71.7308 169.767 70.2299Z" fill="#A0616A"/>
<path d="M209.555 63.0681C213.321 50.7207 217.363 46.8132 221.612 49.2596C224.847 51.1217 225.82 55.3603 223.925 58.5753C219.093 66.7702 209.137 85.5464 211.211 97.9909C211.211 97.9909 214.472 115.384 188.383 115.384C162.293 115.384 137.291 109.405 137.291 109.405L150.879 107.231L181.781 109.438C188.841 109.942 194.791 103.902 193.848 96.8865C193.817 96.6549 193.78 96.4208 193.737 96.1841C192.188 87.6639 209.555 63.0681 209.555 63.0681Z" fill="#3F3D56"/>
<path d="M202.448 12.5518C201.249 15.9085 203.884 19.3941 207.44 19.157L207.525 19.1513C209.915 22.1398 209.981 26.3671 207.685 29.4288C207.497 33.3749 208.115 37.318 209.502 41.017L213.399 51.4101L219.399 48.6101L222.247 56.21L238.999 47.5799L228.846 24.7355L225.748 12.3418C223.543 3.52422 214.549 -1.78322 205.765 0.550112L199.025 2.34029C193.701 3.75458 190.636 9.32912 192.295 14.5824L202.448 12.5518Z" fill="#2F2E41"/>
</g>
<defs>
<clipPath id="clip0_73_5634">
<rect width="238.752" height="160" fill="white" transform="translate(0.248047)"/>
</clipPath>
</defs>
</svg>
