<svg width="12" height="14" viewBox="0 0 12 14" fill="none" xmlns="http://www.w3.org/2000/svg">
<path d="M7.16732 1.32324V3.73272C7.16732 4.05942 7.16732 4.22277 7.2309 4.34755C7.28682 4.45731 7.37606 4.54655 7.48582 4.60248C7.61061 4.66606 7.77395 4.66606 8.10065 4.66606H10.5101M7.16732 9.91602H3.66732M8.33398 7.58268H3.66732M10.6673 5.82581V10.0327C10.6673 11.0128 10.6673 11.5028 10.4766 11.8772C10.3088 12.2064 10.0411 12.4742 9.7118 12.6419C9.33746 12.8327 8.84741 12.8327 7.86732 12.8327H4.13398C3.15389 12.8327 2.66385 12.8327 2.2895 12.6419C1.96022 12.4742 1.6925 12.2064 1.52472 11.8772C1.33398 11.5028 1.33398 11.0128 1.33398 10.0327V3.96602C1.33398 2.98592 1.33398 2.49588 1.52472 2.12153C1.6925 1.79225 1.96022 1.52453 2.2895 1.35675C2.66385 1.16602 3.15389 1.16602 4.13398 1.16602H6.00752C6.43555 1.16602 6.64957 1.16602 6.85097 1.21437C7.02954 1.25724 7.20024 1.32795 7.35682 1.4239C7.53342 1.53212 7.68475 1.68345 7.98742 1.98612L9.84722 3.84591C10.1499 4.14858 10.3012 4.29991 10.4094 4.47652C10.5054 4.63309 10.5761 4.8038 10.619 4.98236C10.6673 5.18376 10.6673 5.39778 10.6673 5.82581Z" stroke="#101828" stroke-width="1.1" stroke-linecap="round" stroke-linejoin="round"/>
</svg>
