<svg width="28" height="28" viewBox="0 0 28 28" fill="none" xmlns="http://www.w3.org/2000/svg">
<path opacity="0.2" d="M20.1247 23.7647C19.1296 24.3393 18.031 24.7122 16.8918 24.8621C15.7526 25.0121 14.5949 24.9363 13.485 24.6389C12.3751 24.3415 11.3346 23.8284 10.423 23.1288C9.51142 22.4293 8.74651 21.5571 8.17198 20.562L3.57823 12.6054C3.28815 12.103 3.20954 11.5059 3.3597 10.9455C3.50986 10.3851 3.87648 9.9073 4.37892 9.61722C4.88135 9.32714 5.47844 9.24853 6.03884 9.39869C6.59923 9.54884 7.07702 9.91547 7.3671 10.4179L5.6171 7.38681C5.47334 7.13803 5.37999 6.86336 5.3424 6.57849C5.30481 6.29363 5.32371 6.00414 5.39802 5.72658C5.47234 5.44902 5.6006 5.18882 5.7755 4.96084C5.9504 4.73287 6.16849 4.54158 6.41733 4.39791C6.66617 4.25424 6.94088 4.161 7.22576 4.12353C7.51064 4.08605 7.80012 4.10506 8.07765 4.17948C8.35518 4.2539 8.61533 4.38227 8.84324 4.55726C9.07115 4.73224 9.26235 4.95042 9.40592 5.19931L10.2809 6.71485C9.99084 6.21242 9.91223 5.61533 10.0624 5.05493C10.2125 4.49454 10.5792 4.01675 11.0816 3.72667C11.584 3.43659 12.1811 3.35798 12.7415 3.50814C13.3019 3.6583 13.7797 4.02492 14.0698 4.52735L17.351 10.2106C17.061 9.70821 16.9824 9.11112 17.1325 8.55073C17.2827 7.99033 17.6493 7.51254 18.1517 7.22246C18.6542 6.93238 19.2513 6.85377 19.8117 7.00393C20.372 7.15409 20.8498 7.52071 21.1399 8.02315L23.3274 11.812C23.9019 12.8071 24.2749 13.9057 24.4248 15.0449C24.5748 16.1841 24.4989 17.3418 24.2015 18.4517C23.9041 19.5616 23.391 20.6021 22.6915 21.5137C21.992 22.4253 21.1198 23.1902 20.1247 23.7647Z" fill="black"/>
<path d="M24.0855 11.3737L21.8981 7.5849C21.6394 7.13783 21.272 6.76338 20.8299 6.4963C20.3878 6.22922 19.8854 6.07819 19.3693 6.05721C18.8532 6.03623 18.3402 6.146 17.8779 6.37632C17.4156 6.60664 17.0189 6.95004 16.7248 7.37463L14.8279 4.08901C14.5627 3.62933 14.1825 3.24649 13.7247 2.97804C13.2669 2.70959 12.7472 2.56476 12.2165 2.55775C11.6858 2.55074 11.1624 2.6818 10.6977 2.93806C10.233 3.19432 9.84281 3.56699 9.56553 4.0195C9.02408 3.53032 8.32576 3.25051 7.59632 3.23048C6.86689 3.21045 6.15427 3.45151 5.58679 3.91024C5.0193 4.36898 4.63424 5.01525 4.50095 5.73268C4.36766 6.45011 4.49489 7.19156 4.85973 7.82352L5.22652 8.45886C4.71148 8.50023 4.21529 8.67128 3.78417 8.95608C3.35305 9.24088 3.00103 9.63016 2.76089 10.0877C2.52075 10.5452 2.40031 11.056 2.41079 11.5726C2.42126 12.0892 2.56231 12.5947 2.8208 13.0421L7.41455 20.9987C8.04654 22.0933 8.88794 23.0528 9.89072 23.8222C10.8935 24.5917 12.038 25.1561 13.2589 25.4832C14.4798 25.8104 15.7532 25.8938 17.0063 25.7288C18.2595 25.5639 19.4679 25.1537 20.5625 24.5217C21.6571 23.8897 22.6166 23.0483 23.386 22.0455C24.1555 21.0427 24.7199 19.8982 25.047 18.6773C25.3742 17.4564 25.4576 16.183 25.2926 14.9299C25.1277 13.6767 24.7175 12.4683 24.0855 11.3737ZM23.3567 18.2244C22.9536 19.7289 22.1134 21.08 20.9424 22.107C19.7714 23.1339 18.3221 23.7905 16.7779 23.9938C15.2337 24.1971 13.6639 23.938 12.267 23.2491C10.8701 22.5602 9.70887 21.4726 8.9301 20.1237L4.33635 12.1672C4.16262 11.8657 4.11567 11.5076 4.20584 11.1716C4.29601 10.8356 4.51591 10.5491 4.81722 10.3751C5.11852 10.2012 5.47657 10.1539 5.81267 10.2439C6.14877 10.3338 6.43542 10.5534 6.60962 10.8546L9.01587 15.0224C9.03417 15.0536 9.05438 15.0837 9.07638 15.1124C9.08242 15.1204 9.08877 15.1279 9.09502 15.1357C9.1119 15.1565 9.12956 15.1764 9.148 15.1953C9.15484 15.2023 9.16145 15.2095 9.16851 15.2162C9.19325 15.2403 9.21941 15.2628 9.24685 15.2837C9.24829 15.2848 9.24995 15.2857 9.25145 15.2868C9.27749 15.3061 9.30459 15.3238 9.33262 15.34C9.34122 15.345 9.34998 15.3496 9.35874 15.3543C9.38138 15.3665 9.40451 15.3777 9.42811 15.3878C9.43655 15.3914 9.44483 15.3952 9.45332 15.3986C9.48489 15.4112 9.51717 15.4219 9.54998 15.4308C9.55244 15.4314 9.55495 15.4317 9.55741 15.4324C9.58791 15.4401 9.61881 15.4461 9.64996 15.4505C9.65936 15.4518 9.66881 15.4528 9.67826 15.4538C9.70449 15.4567 9.73083 15.4584 9.75731 15.4589C9.76307 15.4591 9.76879 15.4601 9.77456 15.4601C9.77733 15.4601 9.78016 15.4595 9.78294 15.4595C9.81697 15.4593 9.85096 15.4572 9.88473 15.453C9.88735 15.4527 9.88997 15.452 9.89264 15.4516C9.9237 15.4473 9.95451 15.4412 9.98492 15.4335C9.99469 15.4311 10.0044 15.4282 10.0141 15.4254C10.0386 15.4184 10.063 15.4102 10.0872 15.4008C10.0967 15.3972 10.1062 15.3937 10.1156 15.3897C10.23 15.3419 10.3329 15.2701 10.4174 15.1792C10.5018 15.0884 10.5659 14.9805 10.6053 14.8629C10.6446 14.7452 10.6584 14.6205 10.6457 14.4972C10.6329 14.3738 10.594 14.2545 10.5314 14.1474L8.12517 9.97956L8.12485 9.97899L6.37517 6.94846C6.20148 6.64701 6.15457 6.28894 6.24477 5.95292C6.33497 5.61691 6.55488 5.33045 6.85618 5.1565C7.15749 4.98256 7.51553 4.93535 7.85162 5.02527C8.18771 5.11518 8.47435 5.33486 8.64855 5.63602L9.52173 7.14847L9.52344 7.15157L12.3672 12.0771C12.4246 12.1766 12.5011 12.2639 12.5923 12.3338C12.6835 12.4038 12.7875 12.4551 12.8985 12.4848C13.0095 12.5146 13.1253 12.5221 13.2392 12.5071C13.3531 12.4921 13.463 12.4549 13.5625 12.3974C13.662 12.3399 13.7492 12.2635 13.8192 12.1723C13.8891 12.0811 13.9404 11.9771 13.9702 11.8661C13.9999 11.7551 14.0075 11.6393 13.9925 11.5254C13.9775 11.4115 13.9402 11.3016 13.8827 11.2021L11.0391 6.27656C10.9529 6.12729 10.897 5.96251 10.8745 5.79162C10.852 5.62073 10.8634 5.44708 10.908 5.28059C10.9526 5.1141 11.0296 4.95803 11.1345 4.82129C11.2394 4.68454 11.3703 4.56981 11.5195 4.48363C11.6688 4.39745 11.8336 4.34151 12.0045 4.31902C12.1754 4.29652 12.349 4.3079 12.5155 4.35252C12.682 4.39713 12.8381 4.4741 12.9748 4.57903C13.1116 4.68396 13.2263 4.81479 13.3125 4.96406L16.5935 10.6469L16.5937 10.6474L17.286 11.8465C16.3302 12.6377 15.6854 13.7417 15.4658 14.9629C15.2461 16.184 15.4659 17.4435 16.0861 18.5182C16.1435 18.6177 16.22 18.7049 16.3112 18.7748C16.4023 18.8448 16.5064 18.8961 16.6173 18.9258C16.7283 18.9556 16.8441 18.9631 16.958 18.9481C17.0719 18.9331 17.1818 18.8958 17.2813 18.8384C17.3808 18.7809 17.468 18.7045 17.5379 18.6133C17.6079 18.5221 17.6592 18.4181 17.6889 18.3071C17.7187 18.1961 17.7262 18.0804 17.7112 17.9664C17.6962 17.8525 17.6589 17.7427 17.6015 17.6432C17.1374 16.8393 17.0116 15.8839 17.2519 14.9873C17.4922 14.0907 18.0788 13.3262 18.8827 12.8621C18.9079 12.8475 18.9324 12.8317 18.956 12.8147C18.9757 12.8006 18.9942 12.7853 19.0124 12.7698C19.0158 12.7669 19.0196 12.7643 19.023 12.7613C19.0439 12.743 19.0636 12.7237 19.0824 12.7037L19.0842 12.702C19.1031 12.6818 19.1209 12.6608 19.1376 12.6391L19.1395 12.6368C19.1553 12.6162 19.1699 12.5948 19.1837 12.573C19.1851 12.5707 19.1868 12.5686 19.1882 12.5663C19.2007 12.5463 19.2118 12.5256 19.2225 12.5048C19.2249 12.5001 19.2277 12.4957 19.2301 12.491C19.2396 12.4715 19.2479 12.4514 19.256 12.4313C19.2586 12.4249 19.2617 12.4187 19.2642 12.4122C19.273 12.3887 19.2805 12.3647 19.2873 12.3406C19.2882 12.3373 19.2895 12.3341 19.2904 12.3308C19.2913 12.3276 19.2917 12.3242 19.2925 12.321C19.2987 12.2966 19.3043 12.2721 19.3084 12.2473C19.3097 12.2396 19.3101 12.2319 19.3111 12.2243C19.314 12.2036 19.3168 12.1829 19.3182 12.162C19.3186 12.1557 19.3184 12.1493 19.3186 12.1429C19.3197 12.1207 19.3204 12.0985 19.3197 12.0761C19.3196 12.0719 19.3189 12.0677 19.3188 12.0634C19.3176 12.0392 19.3159 12.0149 19.3128 11.9907C19.3124 11.9879 19.3117 11.9852 19.3113 11.9825C19.3078 11.9571 19.3034 11.9318 19.2976 11.9066C19.2968 11.9036 19.2957 11.9006 19.295 11.8976C19.2891 11.8731 19.2824 11.8487 19.2742 11.8245C19.2718 11.8174 19.2686 11.8105 19.266 11.8035C19.2587 11.7838 19.2516 11.7641 19.2428 11.7447C19.2308 11.7181 19.2175 11.6921 19.2029 11.6668L18.1092 9.77234C17.9355 9.47089 17.8886 9.11281 17.9788 8.7768C18.069 8.44078 18.2889 8.15433 18.5902 7.98038C18.8915 7.80643 19.2495 7.75923 19.5856 7.84915C19.9217 7.93906 20.2083 8.15874 20.3825 8.45989L22.57 12.2487C23.0898 13.1433 23.4269 14.1321 23.5619 15.1578C23.6969 16.1835 23.6272 17.2258 23.3567 18.2244ZM9.58945 26.7489C9.52399 26.8434 9.44056 26.924 9.34393 26.9862C9.2473 27.0484 9.13937 27.0909 9.0263 27.1114C8.91322 27.1318 8.79722 27.1298 8.68492 27.1055C8.57262 27.0811 8.46623 27.0349 8.3718 26.9694C6.7812 25.8684 5.45613 24.4266 4.49305 22.749C4.37702 22.548 4.34557 22.3092 4.40562 22.0851C4.46567 21.8609 4.61231 21.6698 4.81327 21.5538C5.01423 21.4377 5.25305 21.4063 5.4772 21.4663C5.70135 21.5264 5.89246 21.673 6.00849 21.874C6.84287 23.3277 7.99089 24.5771 9.36899 25.5313C9.5597 25.6635 9.69006 25.8661 9.73141 26.0944C9.77275 26.3228 9.72169 26.5582 9.58945 26.7489ZM18.3758 3.38982C18.376 3.1579 18.4683 2.93555 18.6323 2.77163C18.7964 2.60771 19.0188 2.51563 19.2508 2.51562H19.2516C20.4029 2.5183 21.5333 2.82272 22.5302 3.39854C23.5271 3.97436 24.3557 4.80145 24.9332 5.79735C24.9908 5.89688 25.0281 6.00676 25.0432 6.12072C25.0582 6.23469 25.0507 6.3505 25.0209 6.46154C24.9912 6.57258 24.9399 6.67668 24.8699 6.76788C24.8 6.85909 24.7127 6.93561 24.6132 6.99308C24.5136 7.05056 24.4037 7.08785 24.2897 7.10284C24.1758 7.11782 24.0599 7.1102 23.9489 7.08042C23.8379 7.05064 23.7338 6.99927 23.6427 6.92925C23.5515 6.85923 23.475 6.77194 23.4176 6.67235C22.9939 5.9419 22.3861 5.33528 21.6548 4.91299C20.9236 4.4907 20.0944 4.26749 19.2499 4.26562C19.0179 4.2654 18.7954 4.173 18.6315 4.00876C18.4675 3.84452 18.3756 3.62188 18.3758 3.38982Z" fill="black"/>
</svg>
