<svg width="14" height="14" viewBox="0 0 14 14" fill="none" xmlns="http://www.w3.org/2000/svg">
<path d="M2.91602 8.33306C1.83605 8.80947 1.16602 9.47337 1.16602 10.2077C1.16602 11.6574 3.77769 12.8327 6.99935 12.8327C10.221 12.8327 12.8327 11.6574 12.8327 10.2077C12.8327 9.47337 12.1626 8.80947 11.0827 8.33306M10.4993 4.66602C10.4993 7.03651 7.87435 8.16602 6.99935 9.91602C6.12435 8.16602 3.49935 7.03651 3.49935 4.66602C3.49935 2.73302 5.06635 1.16602 6.99935 1.16602C8.93235 1.16602 10.4993 2.73302 10.4993 4.66602ZM7.58268 4.66602C7.58268 4.98818 7.32151 5.24935 6.99935 5.24935C6.67718 5.24935 6.41602 4.98818 6.41602 4.66602C6.41602 4.34385 6.67718 4.08268 6.99935 4.08268C7.32151 4.08268 7.58268 4.34385 7.58268 4.66602Z" stroke="#667085" stroke-width="1.1" stroke-linecap="round" stroke-linejoin="round"/>
</svg>
