<svg width="14" height="12" viewBox="0 0 14 12" fill="none" xmlns="http://www.w3.org/2000/svg">
<path d="M12.541 9.50065L8.66602 6.00065M5.33268 6.00065L1.4577 9.50065M1.16602 3.08398L5.92888 6.41799C6.31457 6.68797 6.50741 6.82296 6.71717 6.87525C6.90245 6.92143 7.09624 6.92143 7.28153 6.87525C7.49129 6.82296 7.68413 6.68797 8.06981 6.41799L12.8327 3.08398M3.96602 10.6673H10.0327C11.0128 10.6673 11.5028 10.6673 11.8772 10.4766C12.2064 10.3088 12.4742 10.0411 12.6419 9.7118C12.8327 9.33746 12.8327 8.84741 12.8327 7.86732V4.13398C12.8327 3.15389 12.8327 2.66385 12.6419 2.2895C12.4742 1.96022 12.2064 1.6925 11.8772 1.52472C11.5028 1.33398 11.0128 1.33398 10.0327 1.33398H3.96602C2.98592 1.33398 2.49588 1.33398 2.12153 1.52472C1.79225 1.6925 1.52453 1.96022 1.35675 2.2895C1.16602 2.66385 1.16602 3.15389 1.16602 4.13398V7.86732C1.16602 8.84741 1.16602 9.33746 1.35675 9.7118C1.52453 10.0411 1.79225 10.3088 2.12153 10.4766C2.49588 10.6673 2.98592 10.6673 3.96602 10.6673Z" stroke="#667085" stroke-width="1.1" stroke-linecap="round" stroke-linejoin="round"/>
</svg>
