<svg width="14" height="14" viewBox="0 0 14 14" fill="none" xmlns="http://www.w3.org/2000/svg">
<path d="M8.19498 3.49935C8.76475 3.61051 9.28838 3.88917 9.69886 4.29964C10.1093 4.71012 10.388 5.23375 10.4992 5.80352M8.19498 1.16602C9.37873 1.29752 10.4826 1.82762 11.3253 2.66927C12.168 3.51092 12.6995 4.6141 12.8325 5.79768M5.96489 8.08614C5.26397 7.38522 4.71051 6.59268 4.30451 5.74707C4.26959 5.67433 4.25213 5.63796 4.23871 5.59194C4.19104 5.4284 4.22528 5.22759 4.32446 5.08908C4.35236 5.05011 4.3857 5.01677 4.45239 4.95009C4.65632 4.74615 4.75829 4.64418 4.82496 4.54164C5.07637 4.15496 5.07637 3.65645 4.82496 3.26977C4.75829 3.16723 4.65632 3.06526 4.45239 2.86132L4.33871 2.74765C4.0287 2.43764 3.8737 2.28264 3.70723 2.19844C3.37615 2.03098 2.98516 2.03098 2.65408 2.19844C2.48761 2.28264 2.33261 2.43764 2.0226 2.74765L1.93065 2.8396C1.6217 3.14855 1.46723 3.30302 1.34925 3.51304C1.21834 3.74609 1.12421 4.10804 1.12501 4.37534C1.12572 4.61622 1.17245 4.78085 1.2659 5.11011C1.76814 6.8796 2.71575 8.54931 4.10873 9.94229C5.50172 11.3353 7.17143 12.2829 8.94091 12.7851C9.27017 12.8786 9.4348 12.9253 9.67569 12.926C9.94299 12.9268 10.3049 12.8327 10.538 12.7018C10.748 12.5838 10.9025 12.4293 11.2114 12.1204L11.3034 12.0284C11.6134 11.7184 11.7684 11.5634 11.8526 11.3969C12.02 11.0659 12.02 10.6749 11.8526 10.3438C11.7684 10.1773 11.6134 10.0223 11.3034 9.71232L11.1897 9.59864C10.9858 9.39471 10.8838 9.29274 10.7813 9.22607C10.3946 8.97466 9.89607 8.97466 9.50938 9.22607C9.40685 9.29274 9.30488 9.39471 9.10094 9.59864C9.03426 9.66532 9.00092 9.69867 8.96194 9.72657C8.82344 9.82575 8.62262 9.85999 8.45909 9.81232C8.41307 9.7989 8.3767 9.78144 8.30396 9.74652C7.45835 9.34052 6.66581 8.78706 5.96489 8.08614Z" stroke="#667085" stroke-width="1.1" stroke-linecap="round" stroke-linejoin="round"/>
</svg>
