<svg width="16" height="20" viewBox="0 0 16 20" fill="none" xmlns="http://www.w3.org/2000/svg">
<path d="M9.66732 9.16602H4.66732M6.33398 12.4993H4.66732M11.334 5.83268H4.66732M14.6673 5.66602V14.3327C14.6673 15.7328 14.6673 16.4329 14.3948 16.9677C14.1552 17.4381 13.7727 17.8205 13.3023 18.0602C12.7675 18.3327 12.0674 18.3327 10.6673 18.3327H5.33398C3.93385 18.3327 3.23379 18.3327 2.69901 18.0602C2.2286 17.8205 1.84615 17.4381 1.60647 16.9677C1.33398 16.4329 1.33398 15.7328 1.33398 14.3327V5.66602C1.33398 4.26588 1.33398 3.56582 1.60647 3.03104C1.84615 2.56063 2.2286 2.17818 2.69901 1.9385C3.23379 1.66602 3.93385 1.66602 5.33398 1.66602H10.6673C12.0674 1.66602 12.7675 1.66602 13.3023 1.9385C13.7727 2.17818 14.1552 2.56063 14.3948 3.03104C14.6673 3.56582 14.6673 4.26588 14.6673 5.66602Z" stroke="#98A2B3" stroke-width="2" stroke-linecap="round" stroke-linejoin="round"/>
</svg>
