<svg width="12" height="12" viewBox="0 0 12 12" fill="none" xmlns="http://www.w3.org/2000/svg">
<path d="M5.41667 1.33333H3.55C2.56991 1.33333 2.07986 1.33333 1.70552 1.52407C1.37623 1.69185 1.10852 1.95957 0.940739 2.28885C0.75 2.6632 0.75 3.15324 0.75 4.13333V8.45C0.75 9.43009 0.75 9.92014 0.940739 10.2945C1.10852 10.6238 1.37623 10.8915 1.70552 11.0593C2.07986 11.25 2.56991 11.25 3.55 11.25H7.86667C8.84676 11.25 9.3368 11.25 9.71115 11.0593C10.0404 10.8915 10.3081 10.6238 10.4759 10.2945C10.6667 9.92014 10.6667 9.43009 10.6667 8.45V6.58333M6.58333 8.91667H3.08333M7.75 6.58333H3.08333M10.7374 1.26256C11.4209 1.94598 11.4209 3.05402 10.7374 3.73744C10.054 4.42085 8.94598 4.42085 8.26256 3.73744C7.57915 3.05402 7.57915 1.94598 8.26256 1.26256C8.94598 0.579146 10.054 0.579146 10.7374 1.26256Z" stroke="#667085" stroke-width="1.1" stroke-linecap="round" stroke-linejoin="round"/>
</svg>
